SRRun01_grf
version=1
nRows=24
nColumns=19
inDegrees=no
endheader
time	ground_force_r_vx	ground_force_r_vy	ground_force_r_vz	ground_force_r_px	ground_force_r_py	ground_force_r_pz	ground_force_r_mx	ground_force_r_my	ground_force_r_mz	ground_force_l_vx	ground_force_l_vy	ground_force_l_vz	ground_force_l_px	ground_force_l_py	ground_force_l_pz	ground_force_l_mx	ground_force_l_my	ground_force_l_mz
    142.49700000	      0.00000000	      0.00000000	      0.00000000	      0.00000000	      0.00000000	      0.00000000	      0.00000000	      0.00000000	      0.00000000	     31.11701810	    965.59969974	    -97.23796912	      0.73101906	      0.00000000	     -1.00421493	      0.00004942	      0.64995160	      0.00003484
    142.49800000	      0.00000000	      0.00000000	      0.00000000	      0.00000000	      0.00000000	      0.00000000	      0.00000000	      0.00000000	      0.00000000	     30.05624543	    950.61458548	   -101.48385386	      0.73133438	      0.00000000	     -1.00160399	      0.00004681	      2.48652126	      0.00003466
    142.49900000	      0.00000000	      0.00000000	      0.00000000	      0.00000000	      0.00000000	      0.00000000	      0.00000000	      0.00000000	      0.00000000	     29.75601984	    936.70304362	   -108.36445586	      0.73182922	      0.00000000	     -0.99893119	      0.00004431	      4.08495658	      0.00003443
    142.50000000	      0.00000000	      0.00000000	      0.00000000	      0.00000000	      0.00000000	      0.00000000	      0.00000000	      0.00000000	      0.00000000	     30.12261645	    923.77522178	   -117.36857964	      0.73247268	      0.00000000	     -0.99622587	      0.00004199	      5.30397096	      0.00003415
    142.50100000	      0.00000000	      0.00000000	      0.00000000	      0.00000000	      0.00000000	      0.00000000	      0.00000000	      0.00000000	      0.00000000	     31.04665839	    911.63299545	   -127.75244157	      0.73322033	      0.00000000	     -0.99351611	      0.00003990	      6.03282332	      0.00003384
    142.50200000	      0.00000000	      0.00000000	      0.00000000	      0.00000000	      0.00000000	      0.00000000	      0.00000000	      0.00000000	      0.00000000	     32.40530980	    899.99127363	   -138.61540700	      0.73401801	      0.00000000	     -0.99082684	      0.00003805	      6.20340797	      0.00003351
    142.50300000	      0.00000000	      0.00000000	      0.00000000	      0.00000000	      0.00000000	      0.00000000	      0.00000000	      0.00000000	      0.00000000	     34.06274698	    888.50997991	   -148.99365471	      0.73480666	      0.00000000	     -0.98817928	      0.00003645	      5.79895349	      0.00003317
    142.50400000	      0.00000000	      0.00000000	      0.00000000	      0.00000000	      0.00000000	      0.00000000	      0.00000000	      0.00000000	      0.00000000	     35.87009959	    876.83339063	   -157.96200472	      0.73552787	      0.00000000	     -0.98559172	      0.00003510	      4.85813491	      0.00003282
    142.50500000	      0.00000000	      0.00000000	      0.00000000	      0.00000000	      0.00000000	      0.00000000	      0.00000000	      0.00000000	      0.00000000	     37.66627986	    864.63233864	   -164.73288332	      0.73612936	      0.00000000	     -0.98308078	      0.00003400	      3.47375691	      0.00003246
    142.50600000	      0.00000000	      0.00000000	      0.00000000	      0.00000000	      0.00000000	      0.00000000	      0.00000000	      0.00000000	      0.00000000	     39.28115468	    851.64400554	   -168.74130269	      0.73657009	      0.00000000	     -0.98066251	      0.00003312	      1.78570540	      0.00003206
    142.50700000	      0.00000000	      0.00000000	      0.00000000	      0.00000000	      0.00000000	      0.00000000	      0.00000000	      0.00000000	      0.00000000	     40.54216682	    837.70382330	   -169.70594628	      0.73682429	      0.00000000	     -0.97835240	      0.00003244	     -0.03145498	      0.00003160
    142.50800000	      0.00000000	      0.00000000	      0.00000000	      0.00000000	      0.00000000	      0.00000000	      0.00000000	      0.00000000	      0.00000000	     41.28472851	    822.76466539	   -167.65900807	      0.73688390	      0.00000000	     -0.97616393	      0.00003194	     -1.78516616	      0.00003105
    142.50900000	      0.00000000	      0.00000000	      0.00000000	      0.00000000	      0.00000000	      0.00000000	      0.00000000	      0.00000000	      0.00000000	     41.36568852	    806.90024029	   -162.94108286	      0.73675928	      0.00000000	     -0.97410552	      0.00003157	     -3.28420711	      0.00003039
    142.51000000	      0.00000000	      0.00000000	      0.00000000	      0.00000000	      0.00000000	      0.00000000	      0.00000000	      0.00000000	      0.00000000	     40.67822078	    790.29218314	   -156.16160936	      0.73647774	      0.00000000	     -0.97217643	      0.00003130	     -4.35866866	      0.00002963
    142.51100000	      0.00000000	      0.00000000	      0.00000000	      0.00000000	      0.00000000	      0.00000000	      0.00000000	      0.00000000	      0.00000000	     39.16588019	    773.20312084	   -148.12951351	      0.73608020	      0.00000000	     -0.97036219	      0.00003107	     -4.87839858	      0.00002876
    142.51200000	      0.00000000	      0.00000000	      0.00000000	      0.00000000	      0.00000000	      0.00000000	      0.00000000	      0.00000000	      0.00000000	     36.83346567	    755.94021788	   -139.76223402	      0.73561636	      0.00000000	     -0.96863082	      0.00003084	     -4.76779044	      0.00002783
    142.51300000	      0.00000000	      0.00000000	      0.00000000	      0.00000000	      0.00000000	      0.00000000	      0.00000000	      0.00000000	      0.00000000	     33.75268692	    738.81492433	   -131.98382197	      0.73513904	      0.00000000	     -0.96693108	      0.00003057	     -4.01513516	      0.00002688
    142.51400000	      0.00000000	      0.00000000	      0.00000000	      0.00000000	      0.00000000	      0.00000000	      0.00000000	      0.00000000	      0.00000000	     30.06128572	    722.10483373	   -125.62403348	      0.73469843	      0.00000000	     -0.96519398	      0.00003023	     -2.67538188	      0.00002596
    142.51500000	      0.00000000	      0.00000000	      0.00000000	      0.00000000	      0.00000000	      0.00000000	      0.00000000	      0.00000000	      0.00000000	     25.95503862	    706.02292029	   -121.33012894	      0.73433694	      0.00000000	     -0.96333854	      0.00002979	     -0.86593213	      0.00002513
    142.51600000	      0.00000000	      0.00000000	      0.00000000	      0.00000000	      0.00000000	      0.00000000	      0.00000000	      0.00000000	      0.00000000	     21.67286831	    690.69809860	   -119.50143591	      0.73408522	      0.00000000	     -0.96128155	      0.00002924	      1.24412806	      0.00002442
    142.51700000	      0.00000000	      0.00000000	      0.00000000	      0.00000000	      0.00000000	      0.00000000	      0.00000000	      0.00000000	      0.00000000	     17.47613165	    676.16915567	   -120.25381652	      0.73395991	      0.00000000	     -0.95895062	      0.00002861	      3.45025737	      0.00002386
    142.51800000	      0.00000000	      0.00000000	      0.00000000	      0.00000000	      0.00000000	      0.00000000	      0.00000000	      0.00000000	      0.00000000	     13.62404806	    662.39189366	   -123.41736359	      0.73396310	      0.00000000	     -0.95629808	      0.00002790	      5.53246734	      0.00002346
    142.51900000	      0.00000000	      0.00000000	      0.00000000	      0.00000000	      0.00000000	      0.00000000	      0.00000000	      0.00000000	      0.00000000	     10.34803461	    649.25715191	   -128.56642194	      0.73408362	      0.00000000	     -0.95331347	      0.00002715	      7.27700660	      0.00002320
    142.52000000	      0.00000000	      0.00000000	      0.00000000	      0.00000000	      0.00000000	      0.00000000	      0.00000000	      0.00000000	      0.00000000	      7.82812709	    636.61565501	   -135.07701332	      0.73429972	      0.00000000	     -0.95003189	      0.00002641	      8.49745915	      0.00002305
